<?xml version="1.0" standalone="no"?>
<!DOCTYPE svg PUBLIC "-//W3C//DTD SVG 20010904//EN"
 "http://www.w3.org/TR/2001/REC-SVG-20010904/DTD/svg10.dtd">
<svg version="1.0" xmlns="http://www.w3.org/2000/svg"
 width="1498.000000pt" height="1057.000000pt" viewBox="0 0 1498.000000 1057.000000"
 preserveAspectRatio="xMidYMid meet">
<metadata>
Created by potrace 1.16, written by Peter Selinger 2001-2019
</metadata>
<g transform="translate(0.000000,1057.000000) scale(0.100000,-0.100000)"
fill="#000000" stroke="none">
<path d="M8107 10458 c-39 -138 -260 -941 -285 -1038 -26 -97 -111 -405 -163
-590 -22 -80 -42 -154 -44 -165 -1 -11 -5 -27 -8 -35 -4 -8 -29 -98 -57 -200
-28 -102 -55 -188 -59 -193 -4 -4 -106 -6 -227 -5 l-219 3 3 23 c2 13 39 143
83 289 43 146 79 270 79 274 0 5 -100 8 -231 7 l-231 -3 -36 -115 c-19 -63
-58 -196 -87 -295 l-52 -180 -120 -3 -120 -3 -12 -42 c-13 -45 -42 -142 -91
-302 -16 -54 -30 -103 -30 -107 0 -4 52 -8 116 -8 106 0 116 -2 111 -17 -117
-383 -129 -436 -134 -568 -5 -113 -3 -141 16 -210 33 -117 75 -189 162 -276
119 -120 250 -174 450 -186 85 -5 99 -8 95 -22 -3 -9 -27 -99 -55 -201 -27
-102 -75 -277 -107 -390 -31 -113 -60 -218 -64 -235 -7 -30 -69 -253 -195
-710 -36 -132 -93 -339 -126 -460 -81 -297 -407 -1482 -474 -1725 -80 -290
-95 -346 -95 -352 0 -7 110 -31 116 -25 3 3 25 79 50 168 24 90 57 211 74 269
84 301 162 587 165 605 1 11 5 27 9 35 3 8 54 188 112 400 58 212 162 590 230
840 69 250 149 543 179 650 29 107 74 269 99 360 25 91 77 282 116 425 40 143
78 283 85 310 7 28 43 158 80 290 36 132 111 402 165 600 208 758 272 991 365
1330 53 193 109 397 125 455 15 58 72 263 125 455 53 193 103 373 110 400 7
28 34 127 60 220 72 262 74 270 67 276 -8 7 -85 29 -100 29 -6 0 -17 -24 -25
-52z m-747 -2702 c0 -13 -45 -180 -149 -561 -23 -82 -47 -165 -53 -184 l-10
-33 -73 4 c-89 6 -168 41 -216 96 -18 20 -38 36 -43 34 -6 -2 -8 -1 -5 3 4 3
-2 28 -12 56 -31 80 -26 173 17 314 19 66 44 152 55 190 11 39 22 76 24 83 7
19 465 17 465 -2z"/>
<path d="M8321 10043 c-62 -224 -125 -455 -141 -513 -59 -210 -383 -1381 -490
-1770 -100 -365 -245 -888 -341 -1235 -55 -198 -106 -382 -114 -410 -7 -27
-61 -223 -120 -435 -59 -212 -142 -513 -185 -670 -43 -157 -163 -589 -265
-960 -103 -371 -193 -697 -200 -725 -8 -27 -58 -212 -113 -410 -146 -524 -141
-503 -127 -509 12 -4 58 151 197 664 28 102 61 223 75 270 13 47 29 107 35
133 12 48 12 48 47 42 177 -27 550 -33 725 -10 365 48 735 209 1036 452 83 67
232 217 299 303 178 224 328 528 391 792 51 215 53 241 60 998 6 704 7 716 29
790 79 261 251 475 491 608 130 72 249 101 448 109 144 6 153 7 157 27 33 141
85 376 85 385 0 26 -290 5 -489 -35 -486 -98 -848 -401 -1031 -862 -76 -193
-122 -417 -136 -657 -4 -66 0 -316 7 -555 8 -239 13 -477 12 -527 -14 -690
-630 -1327 -1418 -1469 -178 -32 -595 -19 -595 18 0 6 17 71 37 145 l36 134
46 -8 c89 -15 339 -6 444 16 524 111 957 466 1105 906 52 153 54 198 39 735
-14 506 -10 688 18 868 93 601 368 1051 807 1324 274 170 583 254 976 265 116
3 212 7 212 7 0 2 60 267 75 334 l5 22 -237 0 c-131 0 -287 -5 -348 -10 -401
-38 -791 -197 -1099 -449 -86 -70 -246 -232 -307 -310 -175 -225 -307 -488
-375 -751 -57 -219 -57 -221 -64 -995 l-6 -720 -27 -99 c-48 -177 -137 -326
-274 -457 -91 -87 -140 -123 -240 -173 -162 -81 -326 -113 -520 -101 -62 4
-113 10 -113 13 0 4 14 57 31 117 17 61 52 189 79 285 27 96 96 348 155 560
59 212 142 516 186 675 44 160 88 319 98 355 27 94 46 163 191 690 72 261 171
619 220 795 188 676 254 916 296 1073 24 90 53 193 64 230 37 127 293 1057
294 1071 0 8 -4 16 -10 18 -6 2 -54 -155 -123 -404z"/>
<path d="M5365 8773 c-160 -25 -303 -82 -452 -178 -92 -60 -216 -172 -207
-186 3 -5 -1 -7 -8 -4 -17 6 -124 -129 -176 -223 -155 -275 -196 -531 -121
-748 59 -173 212 -306 407 -354 298 -73 645 0 904 192 80 59 188 155 188 167
0 6 -44 32 -180 103 -47 25 -102 55 -123 67 l-39 22 -48 -36 c-106 -77 -249
-125 -381 -125 -187 0 -296 86 -307 242 l-4 58 635 0 635 0 21 63 c60 186 76
356 46 493 -47 212 -201 372 -415 429 -64 17 -308 29 -375 18z m154 -404 c99
-21 184 -100 198 -183 l6 -36 -372 0 c-209 0 -371 4 -371 9 0 5 28 35 63 67
130 121 317 177 476 143z"/>
<path d="M5410 1336 l-75 -21 -21 -95 -21 -95 -41 -3 c-36 -3 -43 -7 -48 -30
-3 -15 -10 -43 -15 -62 -14 -54 -12 -59 29 -62 l39 -3 -63 -275 c-35 -151 -63
-283 -64 -292 0 -16 10 -18 69 -18 l69 0 17 78 c9 42 39 173 66 291 27 117 49
215 49 217 0 1 23 4 52 6 l52 3 12 55 c21 88 20 90 -31 90 -29 0 -45 4 -45 13
0 6 11 59 24 117 13 58 24 106 23 106 -1 1 -36 -8 -77 -20z"/>
<path d="M8614 1350 c-60 -24 -87 -123 -42 -154 32 -23 62 -20 97 9 56 48 62
118 11 145 -22 12 -37 12 -66 0z"/>
<path d="M3100 1335 c0 -5 -89 -406 -105 -472 -5 -20 -12 -23 -53 -23 l-48 0
-16 -75 -15 -75 45 0 44 0 -6 -37 c-4 -21 -18 -84 -32 -141 -13 -57 -24 -110
-24 -118 0 -11 16 -14 70 -14 39 0 70 1 70 3 0 5 61 273 66 290 4 13 16 17 49
17 l43 0 52 -155 52 -155 84 0 83 0 -28 77 c-16 43 -47 127 -70 187 -23 60
-41 116 -41 125 0 9 65 90 145 180 80 90 145 165 145 167 0 2 -37 4 -83 4
l-83 0 -118 -140 c-113 -134 -120 -140 -156 -140 l-37 0 23 103 c12 56 36 163
53 237 17 74 31 140 31 147 0 9 -20 13 -70 13 -38 0 -70 -2 -70 -5z"/>
<path d="M4606 1323 c-27 -95 -158 -710 -159 -748 -1 -63 28 -118 86 -162 68
-51 70 -51 118 13 l43 57 -48 42 c-45 39 -49 46 -49 86 1 24 35 194 77 378 42
184 76 338 76 343 0 4 -31 8 -69 8 -58 0 -71 -3 -75 -17z"/>
<path d="M7630 883 c-57 -252 -105 -468 -108 -480 -4 -22 -2 -23 66 -23 l70 0
11 45 12 46 26 -31 c99 -118 316 -91 463 59 158 162 198 417 85 548 -97 113
-275 118 -407 12 -22 -17 -38 -25 -38 -17 0 7 15 77 34 156 l33 142 -71 0 -72
0 -104 -457z m469 78 c45 -33 65 -76 64 -146 -1 -197 -190 -357 -337 -286 -64
31 -90 88 -84 179 9 121 88 232 193 270 47 18 127 9 164 -17z"/>
<path d="M9412 1298 c-6 -24 -21 -88 -32 -143 -27 -124 -32 -134 -50 -100 -19
35 -86 73 -141 81 -102 14 -248 -52 -338 -153 -182 -203 -183 -484 -2 -586 97
-55 232 -37 334 45 l39 30 -7 -46 -7 -46 71 0 c39 0 71 4 71 8 0 5 47 216 105
470 58 253 105 465 105 471 0 7 -27 11 -69 11 l-69 0 -10 -42z m-198 -331
c115 -65 112 -247 -5 -367 -59 -61 -110 -85 -180 -85 -46 0 -62 5 -93 29 -21
16 -45 45 -53 64 -19 46 -13 154 11 204 46 96 157 178 240 178 24 0 58 -10 80
-23z"/>
<path d="M930 1127 c-228 -51 -407 -308 -370 -529 44 -257 353 -313 577 -104
l56 52 -50 36 -49 35 -40 -33 c-87 -75 -196 -98 -267 -57 -41 24 -77 87 -77
136 l0 37 279 0 278 0 7 38 c9 57 7 163 -4 204 -40 141 -184 220 -340 185z
m120 -156 c37 -26 70 -80 70 -112 l0 -29 -190 0 -191 0 12 23 c50 94 150 153
239 141 19 -3 46 -13 60 -23z"/>
<path d="M2490 1125 c-75 -21 -153 -70 -206 -129 -59 -65 -113 -177 -121 -249
l-6 -57 242 0 c199 0 241 -2 241 -14 0 -7 -15 -36 -32 -62 -46 -68 -104 -99
-189 -99 -66 0 -80 6 -164 69 -7 6 -33 -8 -73 -39 -34 -27 -62 -51 -62 -55 0
-17 71 -72 125 -96 75 -35 182 -39 261 -10 160 59 286 220 301 389 l6 57 -242
0 c-133 0 -241 4 -241 9 0 23 69 108 104 127 85 48 190 35 240 -29 l24 -30 61
49 c34 27 61 52 61 56 0 4 -13 23 -30 41 -61 69 -194 101 -300 72z"/>
<path d="M3965 1134 c-95 -23 -203 -88 -258 -156 -89 -109 -127 -208 -127
-327 1 -84 15 -133 54 -190 67 -96 212 -123 337 -64 35 17 75 41 88 53 l24 23
-7 -46 -7 -47 69 0 69 0 12 42 c8 35 105 456 149 656 l10 42 -73 0 -73 0 -7
-37 c-10 -55 -14 -57 -38 -22 -12 18 -39 41 -59 51 -37 19 -125 31 -163 22z
m123 -171 c15 -11 37 -37 50 -59 19 -33 22 -50 19 -109 -8 -143 -116 -267
-245 -281 -132 -15 -219 125 -168 269 30 83 117 173 191 197 45 14 123 6 153
-17z"/>
<path d="M5854 1121 c-22 -10 -53 -34 -67 -52 l-27 -34 6 43 7 42 -65 0 -65 0
-81 -362 c-45 -200 -82 -366 -82 -370 0 -5 31 -8 69 -8 l69 0 16 68 c8 37 29
128 46 202 52 231 60 259 91 290 33 33 74 45 109 32 23 -8 27 -4 67 66 24 42
43 76 43 78 0 5 -64 24 -79 24 -9 0 -34 -9 -57 -19z"/>
<path d="M6330 1130 c-115 -24 -255 -129 -314 -235 -94 -171 -89 -352 14 -452
90 -87 229 -102 368 -38 56 25 182 120 182 136 0 5 -21 24 -47 43 l-47 34 -39
-35 c-77 -70 -185 -94 -258 -59 -47 22 -82 77 -83 129 l-1 42 276 3 277 2 5
23 c25 106 15 206 -28 282 -59 103 -177 151 -305 125z m115 -159 c30 -17 57
-62 69 -113 l6 -28 -195 0 c-222 0 -215 -4 -137 82 75 83 175 106 257 59z"/>
<path d="M7172 1125 c-49 -15 -85 -36 -124 -73 -31 -28 -35 -20 -19 36 l10 32
-72 0 -72 0 -18 -82 c-10 -46 -45 -198 -77 -338 -32 -140 -61 -270 -65 -287
l-7 -33 71 0 c58 0 71 3 75 18 3 9 25 107 50 218 50 224 57 245 92 292 39 51
96 75 166 70 121 -9 130 -55 65 -343 -25 -110 -48 -213 -52 -228 l-7 -28 73 3
73 3 53 230 c72 320 69 406 -16 478 -54 45 -121 56 -199 32z"/>
<path d="M9950 1130 c-64 -14 -159 -63 -213 -110 -204 -180 -226 -507 -42
-615 91 -53 213 -52 329 3 60 29 171 116 171 134 0 5 -20 24 -45 43 l-44 33
-40 -35 c-81 -74 -200 -97 -270 -53 -40 24 -79 96 -74 137 l3 28 278 3 c152 1
277 5 277 8 0 3 5 36 11 74 35 230 -125 394 -341 350z m111 -155 c33 -18 56
-53 68 -104 l9 -41 -194 0 -195 0 15 28 c17 32 81 94 116 113 60 30 126 32
181 4z"/>
<path d="M11115 1133 c-180 -38 -344 -214 -362 -388 l-6 -55 242 0 c199 0 241
-2 241 -14 0 -7 -15 -36 -32 -62 -61 -91 -181 -128 -272 -84 -25 12 -54 32
-64 45 l-19 23 -64 -50 c-35 -27 -63 -55 -61 -61 12 -44 118 -105 203 -117
233 -33 443 148 484 418 l7 42 -246 0 c-136 0 -246 4 -246 9 0 21 68 107 98
125 83 47 181 39 240 -20 l34 -34 32 24 c17 14 45 36 61 49 l30 25 -21 29
c-54 73 -181 117 -279 96z"/>
<path d="M11847 1130 c-71 -18 -142 -63 -213 -134 -131 -132 -182 -296 -138
-447 29 -99 96 -160 194 -179 91 -17 181 8 264 73 l39 31 -7 -29 c-4 -17 -9
-38 -12 -48 -5 -16 1 -18 68 -15 l73 3 82 360 c45 198 82 363 83 368 0 4 -32
7 -70 7 l-70 0 -12 -45 -12 -45 -29 35 c-16 20 -42 42 -58 50 -36 19 -133 27
-182 15z m133 -161 c81 -46 109 -167 63 -271 -44 -97 -159 -188 -241 -188
-102 0 -183 99 -168 207 14 102 90 207 181 249 62 30 116 30 165 3z"/>
<path d="M12673 1119 c-24 -12 -54 -34 -68 -51 -27 -32 -30 -29 -16 20 l10 32
-68 0 -67 0 -82 -362 c-45 -200 -82 -366 -82 -370 0 -5 31 -8 69 -8 l69 0 27
118 c89 387 94 405 127 439 35 36 72 48 109 35 22 -9 27 -4 66 67 l42 76 -27
12 c-39 17 -61 16 -109 -8z"/>
<path d="M13150 1129 c-154 -30 -310 -176 -360 -338 -23 -74 -26 -187 -6 -244
34 -95 93 -146 197 -173 99 -25 233 10 332 88 65 51 87 71 87 79 0 4 -21 23
-47 42 l-48 35 -39 -35 c-84 -76 -202 -98 -272 -51 -40 27 -77 95 -72 135 l3
28 276 3 277 2 5 23 c49 196 -36 372 -194 406 -57 12 -76 12 -139 0z m115
-158 c33 -19 60 -61 69 -108 l6 -33 -190 0 c-154 0 -190 3 -190 14 0 20 78
104 114 123 68 36 134 37 191 4z"/>
<path d="M13933 1126 c-164 -41 -323 -223 -354 -405 -23 -127 23 -259 108
-315 101 -67 256 -50 363 40 l32 27 -7 -46 -7 -47 69 0 70 0 81 363 c45 199
82 365 82 370 0 4 -31 7 -70 7 -68 0 -70 -1 -76 -27 -15 -68 -15 -68 -36 -34
-41 65 -151 94 -255 67z m134 -153 c77 -36 111 -144 78 -244 -58 -175 -238
-270 -351 -184 -93 71 -87 229 13 344 77 88 181 122 260 84z"/>
<path d="M1500 1116 c0 -3 -22 -105 -50 -227 -67 -298 -66 -375 8 -452 48 -51
99 -71 179 -71 63 1 82 6 147 38 86 42 151 108 191 192 14 31 46 144 71 252
25 108 49 214 53 235 l9 37 -72 0 -72 0 -48 -212 c-26 -117 -56 -231 -65 -253
-23 -52 -89 -111 -141 -125 -50 -13 -96 -1 -130 35 -40 43 -38 104 14 330 25
109 46 205 46 212 0 9 -19 13 -70 13 -38 0 -70 -2 -70 -4z"/>
<path d="M8507 1038 c-10 -46 -48 -211 -83 -366 -35 -156 -64 -286 -64 -288 0
-2 31 -4 69 -4 58 0 71 3 75 18 3 9 39 168 81 352 42 184 78 343 81 353 5 15
-3 17 -68 17 l-73 0 -18 -82z"/>
</g>
</svg>
