<?xml version="1.0" standalone="no"?>
<!DOCTYPE svg PUBLIC "-//W3C//DTD SVG 20010904//EN"
 "http://www.w3.org/TR/2001/REC-SVG-20010904/DTD/svg10.dtd">
<svg version="1.0" xmlns="http://www.w3.org/2000/svg"
 width="800.000000pt" height="800.000000pt" viewBox="0 0 800.000000 800.000000"
 preserveAspectRatio="xMidYMid meet">
<metadata>
Created by potrace 1.16, written by Peter Selinger 2001-2019
</metadata>
<g transform="translate(0.000000,800.000000) scale(0.100000,-0.100000)"
fill="#000000" stroke="none">
<path d="M4661 7938 c-5 -18 -22 -78 -36 -133 -15 -55 -62 -228 -105 -385 -43
-157 -124 -451 -180 -655 -188 -686 -250 -910 -260 -932 -9 -23 -11 -23 -215
-23 -183 0 -205 2 -205 16 0 9 13 60 29 113 40 133 123 414 124 424 2 8 -433
10 -442 2 -2 -2 -41 -127 -86 -277 l-82 -273 -111 -3 -111 -3 -20 -62 c-22
-68 -111 -366 -111 -373 0 -2 46 -4 103 -4 57 0 106 -2 109 -5 3 -3 -21 -96
-53 -206 -32 -110 -63 -237 -69 -282 -36 -257 85 -509 296 -619 94 -49 162
-68 274 -74 52 -3 100 -7 106 -9 7 -2 -22 -124 -78 -327 -49 -177 -117 -429
-153 -558 -64 -234 -154 -563 -365 -1330 -61 -223 -133 -486 -160 -585 -27
-99 -75 -277 -108 -395 -145 -523 -185 -670 -181 -674 2 -2 28 -11 57 -20 40
-11 54 -12 57 -3 7 20 112 395 140 502 15 55 60 219 100 365 40 146 101 366
135 490 34 124 104 380 156 570 52 190 122 442 154 560 32 118 102 373 155
565 53 193 134 487 180 655 46 168 102 373 125 455 23 83 59 213 80 290 20 77
85 313 143 525 58 212 126 459 151 550 25 91 62 224 82 295 33 119 93 338 346
1260 49 182 105 385 123 451 l32 122 -41 11 c-22 7 -48 14 -58 17 -11 3 -19
-5 -27 -28z m-711 -2580 c0 -13 -3 -26 -116 -433 -42 -154 -81 -286 -87 -293
-8 -10 -25 -12 -61 -7 -128 16 -205 66 -253 163 -38 78 -38 170 1 297 15 50
41 134 57 188 l30 97 214 0 c159 0 215 -3 215 -12z"/>
<path d="M4967 7903 c-2 -4 -48 -165 -102 -358 -53 -192 -128 -460 -165 -595
-38 -135 -82 -297 -99 -360 -17 -63 -42 -155 -56 -205 -28 -96 -141 -504 -256
-925 -39 -140 -96 -349 -129 -465 -32 -115 -102 -367 -155 -560 -181 -657
-276 -1000 -355 -1285 -96 -347 -154 -557 -221 -800 -28 -102 -84 -304 -124
-450 -41 -146 -101 -362 -133 -480 -33 -118 -101 -366 -152 -550 -51 -184
-107 -388 -125 -453 -29 -107 -31 -138 -6 -123 5 3 11 16 13 28 5 22 199 723
255 923 21 72 33 99 43 98 191 -26 561 -30 712 -8 423 64 795 249 1098 547
160 157 278 321 380 527 67 134 100 223 134 359 58 227 59 235 66 967 6 665 7
682 29 755 75 253 257 472 486 585 123 61 228 85 403 92 134 6 143 7 147 27
36 149 81 363 78 369 -12 21 -283 2 -463 -34 -564 -113 -941 -511 -1065 -1124
-45 -221 -49 -325 -35 -825 14 -533 14 -587 -6 -694 -71 -373 -300 -700 -659
-941 -279 -187 -597 -287 -915 -287 -129 0 -296 17 -304 31 -3 4 6 45 19 91
13 47 28 103 34 125 l10 40 198 0 c218 0 295 11 452 67 229 81 402 188 562
347 157 158 242 290 303 471 45 136 48 180 35 614 -19 662 -7 854 71 1154 204
782 825 1242 1675 1242 l155 0 6 27 c33 131 70 310 66 317 -3 5 -124 7 -286 3
-308 -6 -418 -20 -620 -77 -762 -215 -1317 -889 -1385 -1685 -6 -66 -11 -377
-11 -692 0 -452 -3 -587 -14 -646 -69 -358 -375 -664 -734 -733 -77 -15 -348
-20 -355 -6 -4 7 13 70 158 592 41 146 86 310 100 365 15 55 49 179 77 275 27
96 64 231 83 300 18 69 93 339 165 600 73 261 161 581 196 710 36 129 89 323
119 430 59 213 179 648 330 1195 53 193 128 460 165 595 116 416 132 482 122
492 -5 5 -12 6 -15 1z"/>
<path d="M2040 6320 c-173 -29 -365 -123 -524 -254 -76 -63 -198 -208 -246
-293 -102 -177 -152 -346 -151 -513 0 -174 36 -269 148 -389 104 -114 237
-167 439 -178 255 -13 494 58 694 208 88 66 187 155 180 161 -3 3 -78 44 -167
91 l-163 87 -67 -45 c-109 -71 -196 -98 -328 -99 -124 -1 -169 10 -221 57 -47
41 -74 97 -77 160 l-2 52 599 5 599 5 19 55 c77 220 76 453 -4 602 -106 199
-301 300 -575 297 -59 -1 -128 -5 -153 -9z m215 -400 c57 -24 100 -64 124
-113 40 -83 64 -77 -324 -77 -227 0 -345 3 -345 10 0 16 90 99 138 127 132 78
300 100 407 53z"/>
</g>
</svg>
