<svg version="1.0" xmlns="http://www.w3.org/2000/svg"
 width="1350.000000pt" height="1350.000000pt" viewBox="0 0 1350.000000 1350.000000"
 preserveAspectRatio="xMidYMid meet">

<g transform="translate(0.000000,1350.000000) scale(0.100000,-0.100000)"
fill="#999999" stroke="none">
<path d="M7876 13399 c-9 -13 -16 -33 -16 -44 0 -11 -6 -40 -14 -65 -16 -51
-36 -124 -61 -220 -22 -84 -44 -164 -60 -220 -24 -84 -44 -155 -54 -195 -10
-42 -33 -126 -57 -210 -8 -27 -20 -70 -26 -95 -5 -25 -14 -49 -19 -55 -5 -5
-9 -20 -9 -35 0 -14 -7 -45 -15 -70 -8 -25 -22 -72 -31 -105 -9 -33 -22 -80
-29 -105 -7 -25 -27 -99 -45 -165 -39 -144 -57 -213 -76 -280 -32 -111 -46
-162 -59 -210 -7 -27 -20 -75 -28 -105 -9 -30 -25 -91 -37 -135 -43 -157 -66
-243 -84 -308 -8 -28 -22 -77 -30 -107 -8 -30 -22 -82 -31 -115 -10 -33 -24
-85 -32 -115 -8 -30 -21 -75 -28 -100 -24 -84 -44 -155 -54 -195 -10 -42 -33
-127 -57 -210 -8 -27 -19 -67 -23 -88 -5 -21 -13 -43 -18 -48 -13 -13 -722
-14 -735 -1 -10 10 -7 20 28 127 7 22 16 57 20 78 3 20 10 40 15 43 5 3 9 13
9 23 0 19 26 108 66 228 13 39 24 80 24 90 0 10 7 31 15 47 8 15 15 34 15 41
0 13 19 78 51 178 11 32 17 62 14 68 -4 5 -151 9 -361 9 l-354 0 -9 -22 c-5
-13 -21 -66 -36 -118 -15 -52 -34 -117 -42 -145 -8 -27 -19 -68 -24 -90 -6
-21 -14 -44 -18 -50 -5 -5 -11 -23 -14 -40 -2 -16 -9 -43 -15 -60 -6 -16 -18
-57 -27 -90 -9 -33 -23 -78 -30 -100 -7 -22 -21 -67 -30 -100 -23 -83 -42
-125 -57 -125 -7 0 -89 -1 -183 -3 l-169 -2 -12 -25 c-7 -14 -20 -52 -29 -85
-10 -33 -23 -80 -31 -105 -7 -25 -27 -92 -44 -150 -48 -161 -57 -191 -73 -245
-8 -27 -18 -65 -22 -82 l-7 -33 177 0 c136 0 177 -3 181 -13 5 -13 -19 -118
-32 -138 -6 -10 -19 -57 -45 -164 -5 -22 -13 -49 -18 -60 -10 -23 -39 -123
-85 -285 -17 -62 -46 -274 -46 -336 0 -101 41 -312 75 -389 65 -147 112 -223
189 -303 199 -208 431 -302 791 -321 l110 -6 3 -28 c2 -15 -4 -41 -12 -59 -9
-17 -16 -42 -16 -55 0 -13 -6 -38 -14 -56 -7 -18 -16 -54 -20 -79 -4 -26 -11
-50 -17 -53 -5 -4 -9 -16 -9 -28 0 -12 -6 -42 -14 -67 -8 -25 -21 -70 -29
-100 -8 -30 -22 -80 -30 -110 -9 -30 -23 -82 -32 -115 -42 -158 -75 -273 -91
-320 -8 -23 -14 -52 -14 -65 -1 -14 -7 -36 -15 -50 -8 -14 -14 -35 -15 -47 0
-12 -6 -42 -14 -65 -7 -24 -21 -72 -31 -108 -16 -62 -22 -82 -59 -210 -28 -98
-67 -244 -76 -288 -5 -23 -14 -51 -20 -61 -5 -11 -10 -30 -10 -43 0 -13 -7
-36 -15 -52 -8 -15 -15 -38 -15 -50 0 -11 -7 -41 -15 -66 -8 -25 -22 -72 -31
-105 -29 -108 -46 -169 -59 -215 -13 -46 -49 -178 -65 -240 -12 -48 -39 -146
-55 -200 -7 -25 -20 -70 -28 -100 -25 -93 -51 -186 -102 -370 -15 -52 -30
-111 -34 -130 -4 -19 -13 -45 -19 -57 -7 -12 -12 -30 -12 -41 0 -11 -7 -44
-16 -73 -8 -30 -21 -76 -28 -104 -8 -27 -21 -75 -29 -105 -9 -30 -23 -82 -32
-115 -9 -33 -23 -80 -29 -105 -7 -25 -21 -74 -31 -110 -41 -154 -48 -177 -61
-219 -8 -25 -14 -52 -14 -60 0 -9 -7 -29 -15 -45 -8 -15 -15 -39 -15 -51 0
-13 -5 -36 -11 -52 -6 -15 -17 -53 -24 -83 -7 -30 -20 -80 -29 -110 -16 -53
-27 -93 -61 -215 -8 -30 -21 -80 -30 -110 -8 -30 -21 -79 -29 -108 -16 -61
-42 -152 -62 -222 -8 -27 -21 -75 -28 -105 -21 -83 -59 -221 -92 -335 -8 -27
-20 -72 -25 -100 -6 -27 -15 -54 -20 -59 -5 -6 -9 -18 -9 -27 0 -9 -7 -41 -16
-70 -8 -30 -22 -79 -30 -109 -8 -30 -21 -75 -29 -100 -31 -106 -32 -103 32
-122 117 -35 109 -37 127 29 9 32 22 72 27 88 6 17 17 55 24 85 19 75 60 229
91 335 8 28 19 69 24 93 5 23 14 51 20 61 5 11 10 28 10 39 0 11 7 42 15 68
13 44 38 134 67 234 5 19 14 49 20 65 9 27 16 56 48 190 5 22 19 72 31 110 11
39 24 86 29 105 4 19 13 49 18 65 6 17 15 50 22 75 6 25 17 69 25 98 20 70 42
151 59 215 8 28 21 77 30 107 10 30 21 75 27 99 5 25 13 59 19 75 5 17 17 58
26 91 17 63 35 128 59 210 8 28 21 76 30 107 8 32 23 84 31 115 9 32 23 83 30
113 8 30 22 80 30 110 38 136 55 198 89 325 34 123 48 173 61 210 8 23 14 51
14 63 0 13 5 33 11 44 7 12 17 47 24 77 13 55 55 213 74 275 11 37 32 112 61
221 46 170 69 254 85 305 7 25 17 62 20 83 4 20 11 40 16 43 5 3 9 16 9 28 0
13 7 46 14 72 8 27 22 76 32 109 9 33 22 80 29 105 7 25 20 70 28 100 9 30 23
78 31 107 9 28 16 58 16 66 0 8 7 37 14 63 8 27 22 76 32 109 9 33 22 80 29
105 18 63 41 146 59 210 8 30 22 82 31 115 9 33 23 85 32 115 32 112 41 146
53 190 10 42 29 111 49 185 5 17 19 66 31 110 12 44 28 103 36 130 8 28 19 70
24 95 6 25 14 56 19 70 5 14 17 54 26 90 10 36 23 85 30 110 7 25 20 70 28
100 8 30 22 80 30 110 9 30 23 84 32 120 10 36 23 85 30 110 19 66 42 147 60
215 9 33 23 80 30 105 7 25 16 59 19 75 4 17 18 68 32 115 23 80 32 112 69
245 8 30 21 79 30 108 8 28 26 95 40 147 14 52 32 118 40 145 7 28 20 75 28
105 8 30 29 107 46 170 18 63 36 131 40 150 5 19 14 49 19 65 6 17 15 50 22
75 10 41 28 110 49 185 5 17 19 66 31 110 12 44 28 103 36 130 8 28 21 75 29
105 21 83 41 159 60 220 9 30 20 71 24 90 4 19 12 51 18 70 6 19 18 60 26 90
9 30 28 98 42 150 15 52 31 111 35 130 5 19 18 67 30 105 12 39 25 90 31 114
5 25 13 59 19 75 5 17 17 58 26 91 9 33 22 80 29 105 7 25 21 72 30 105 9 33
23 83 31 110 25 90 65 239 73 275 4 19 13 45 19 57 7 12 12 32 12 45 0 13 7
43 15 68 8 25 21 70 29 100 16 60 53 198 66 245 5 17 16 55 24 85 9 30 22 80
30 110 16 58 38 140 62 225 50 176 67 238 89 325 20 80 39 148 60 218 9 28 15
57 13 64 -2 6 -29 17 -59 24 -30 6 -64 15 -75 19 -16 5 -26 1 -38 -16z m-1213
-4388 c-1 -24 -9 -65 -17 -90 -8 -25 -22 -75 -31 -111 -28 -108 -66 -246 -90
-330 -7 -25 -20 -70 -28 -100 -9 -30 -23 -78 -31 -107 -9 -28 -16 -58 -16 -66
0 -8 -7 -37 -15 -63 -56 -187 -75 -253 -75 -268 0 -9 -9 -35 -20 -56 l-20 -40
-83 0 c-45 1 -100 7 -122 15 -22 8 -48 15 -57 15 -31 0 -117 51 -172 101 -53
48 -116 129 -116 149 0 4 -6 21 -14 37 -30 59 -38 109 -33 214 5 103 18 181
35 216 5 10 15 38 21 63 6 25 18 65 25 90 62 204 78 260 87 293 5 21 17 49 25
63 l16 24 367 -2 366 -3 -2 -44z"/>
<path d="M8361 13263 c-6 -27 -25 -97 -42 -158 -16 -60 -36 -132 -44 -160 -7
-27 -21 -75 -30 -105 -8 -30 -27 -97 -40 -148 -14 -51 -34 -125 -46 -165 -11
-39 -24 -85 -29 -102 -4 -16 -18 -66 -30 -110 -12 -44 -29 -105 -37 -135 -8
-30 -21 -80 -30 -110 -8 -30 -20 -76 -26 -102 -7 -25 -15 -50 -20 -54 -4 -4
-7 -15 -7 -24 0 -9 -9 -46 -19 -81 -10 -35 -38 -134 -61 -219 -23 -85 -48
-175 -56 -200 -12 -38 -42 -146 -140 -507 -28 -106 -43 -160 -74 -268 -17 -60
-38 -135 -46 -165 -8 -30 -22 -80 -30 -110 -8 -30 -21 -77 -29 -105 -35 -131
-58 -213 -65 -240 -11 -38 -35 -123 -54 -195 -8 -30 -29 -104 -46 -165 -18
-60 -35 -126 -39 -146 -4 -19 -11 -41 -15 -48 -5 -7 -14 -38 -21 -69 -15 -63
-57 -217 -105 -387 -17 -60 -38 -135 -45 -165 -13 -53 -60 -221 -91 -325 -8
-27 -19 -66 -23 -85 -5 -19 -32 -118 -61 -220 -28 -102 -58 -207 -65 -235 -7
-27 -25 -95 -39 -150 -15 -55 -30 -111 -35 -125 -5 -14 -19 -63 -31 -110 -12
-47 -26 -93 -31 -102 -5 -10 -9 -24 -9 -32 0 -7 -7 -36 -15 -62 -12 -40 -88
-315 -159 -579 -14 -49 -40 -142 -57 -200 -4 -16 -15 -56 -24 -87 -49 -181
-81 -299 -120 -433 -23 -82 -94 -338 -141 -515 -8 -30 -21 -77 -29 -105 -8
-27 -21 -75 -29 -105 -8 -30 -29 -104 -46 -165 -17 -60 -38 -135 -46 -165 -8
-30 -21 -77 -29 -105 -7 -27 -20 -75 -28 -105 -8 -30 -22 -77 -30 -105 -8 -27
-28 -102 -45 -165 -17 -63 -52 -187 -77 -275 -25 -88 -50 -179 -55 -203 -5
-23 -14 -51 -20 -61 -5 -11 -10 -30 -10 -43 0 -13 -6 -43 -14 -68 -17 -50 -34
-112 -60 -210 -10 -36 -23 -85 -31 -110 -7 -25 -20 -74 -30 -110 -9 -36 -26
-96 -37 -135 -11 -38 -24 -83 -29 -100 -4 -16 -13 -46 -20 -65 -11 -37 -31
-108 -54 -200 -7 -30 -25 -98 -40 -150 -14 -52 -32 -119 -40 -148 -8 -30 -19
-68 -24 -85 -13 -46 -37 -132 -56 -207 -9 -36 -23 -83 -29 -105 -18 -55 -42
-140 -60 -205 -8 -30 -36 -131 -61 -225 -26 -93 -51 -183 -57 -200 -6 -16 -16
-55 -23 -85 -14 -57 -62 -232 -90 -330 -9 -30 -23 -79 -30 -108 -8 -28 -21
-77 -30 -107 -8 -30 -21 -79 -29 -107 -18 -66 -51 -183 -75 -268 -31 -106 -33
-120 -17 -120 9 0 18 17 24 43 10 41 29 112 58 212 16 56 37 129 58 208 27
101 74 273 95 344 12 40 32 114 46 165 13 51 38 143 55 203 17 61 38 134 45
163 19 68 37 135 69 255 14 54 33 114 41 134 14 33 17 35 52 30 21 -3 83 -10
138 -16 492 -49 964 -36 1247 35 32 8 66 14 77 14 51 0 438 129 589 196 110
49 251 120 308 154 35 22 66 40 69 40 7 0 272 178 287 193 7 7 41 34 74 60
233 177 529 504 707 782 99 154 252 442 277 523 5 15 18 52 30 82 46 117 108
326 133 445 8 39 20 93 26 120 13 60 29 183 41 320 5 55 9 543 9 1084 1 1038
1 1034 48 1236 74 318 298 659 569 863 205 154 400 245 634 293 81 17 155 24
324 28 l219 6 17 70 c9 39 22 93 28 120 42 187 54 238 68 305 8 41 20 90 25
107 6 18 7 37 4 43 -16 27 -509 -1 -685 -39 -25 -5 -81 -17 -125 -26 -314 -64
-643 -213 -898 -408 -340 -258 -606 -643 -752 -1085 -71 -214 -65 -194 -100
-362 -45 -218 -55 -304 -69 -558 -12 -227 -11 -295 16 -1122 16 -492 16 -692
0 -810 -46 -331 -176 -661 -376 -959 -94 -139 -354 -427 -483 -534 -63 -52
-268 -204 -308 -227 -22 -13 -42 -27 -45 -30 -20 -24 -372 -201 -475 -238 -16
-6 -66 -24 -110 -41 -44 -16 -107 -37 -140 -46 -33 -9 -81 -23 -107 -31 -26
-8 -57 -14 -68 -14 -12 0 -52 -7 -89 -15 -224 -50 -600 -61 -841 -25 -139 20
-187 39 -175 68 4 9 11 33 16 52 5 19 14 51 19 70 6 19 26 90 45 157 18 68 37
128 41 134 5 8 28 9 73 5 346 -36 548 -22 891 64 126 31 391 137 528 211 370
200 710 520 895 842 87 150 162 321 187 427 5 19 13 53 19 75 40 164 44 286
23 800 -8 176 -14 547 -15 825 -2 537 0 572 54 875 39 220 103 472 147 578 7
16 12 34 12 42 0 8 4 16 9 20 5 3 13 20 17 37 3 18 10 39 15 48 5 8 18 38 29
65 59 141 177 356 276 501 116 171 295 370 444 495 35 30 73 62 85 72 51 46
312 211 420 265 173 87 237 114 410 168 44 14 89 29 100 33 11 5 43 14 70 21
294 74 504 100 867 109 146 3 268 8 271 11 2 3 10 32 16 65 6 33 18 89 26 125
35 149 74 332 75 348 0 15 -717 17 -872 2 -276 -28 -439 -56 -608 -106 -30 -8
-71 -19 -90 -23 -37 -8 -122 -36 -155 -50 -11 -5 -45 -19 -75 -31 -60 -23 -62
-24 -163 -69 -38 -17 -70 -31 -73 -31 -2 0 -46 -23 -96 -51 -51 -29 -116 -65
-145 -80 -52 -28 -274 -176 -283 -188 -3 -4 -33 -28 -67 -54 -34 -26 -68 -53
-75 -60 -7 -7 -26 -23 -43 -36 -83 -64 -342 -334 -428 -446 -64 -84 -152 -208
-181 -255 -15 -25 -31 -52 -36 -60 -82 -133 -197 -359 -235 -465 -10 -27 -22
-54 -25 -60 -4 -5 -11 -21 -15 -35 -3 -14 -17 -54 -30 -90 -71 -200 -129 -467
-157 -724 -6 -50 -13 -571 -17 -1166 -6 -986 -8 -1081 -24 -1145 -30 -115 -48
-179 -57 -200 -5 -11 -18 -42 -29 -70 -124 -324 -422 -649 -743 -814 -62 -31
-122 -60 -133 -64 -11 -3 -47 -15 -80 -27 -95 -34 -193 -57 -290 -69 -149 -18
-509 -10 -531 11 -5 6 49 219 78 303 6 17 16 55 23 85 7 30 34 129 60 220 49
174 57 204 100 364 14 55 42 154 61 220 20 67 46 163 60 214 13 51 33 125 45
165 11 39 27 95 34 122 7 28 28 102 45 165 18 63 38 138 45 165 7 28 21 75 30
105 16 55 30 105 58 210 8 30 29 107 47 170 36 133 56 204 75 275 20 75 104
373 121 430 8 28 21 75 28 105 15 56 47 176 111 405 20 72 46 164 57 205 20
76 47 174 74 265 8 28 21 75 28 105 8 30 35 129 61 220 26 91 53 188 60 215
12 45 53 195 89 330 8 28 21 75 30 105 10 30 23 80 31 110 7 30 34 127 58 215
25 88 64 228 86 310 38 136 56 201 82 290 15 52 60 215 91 330 12 48 33 121
53 190 21 74 95 343 141 512 8 29 21 78 29 108 9 30 22 79 30 107 7 29 28 103
45 163 17 61 37 133 45 160 11 43 37 138 90 330 7 28 27 100 44 160 17 61 44
160 61 220 17 61 37 133 45 160 7 28 20 75 29 105 10 30 23 80 31 110 18 74
26 103 70 255 20 72 43 153 50 180 8 28 21 74 29 104 8 30 13 58 10 63 -12 19
-23 5 -33 -39z"/>
<path d="M3504 10650 c-11 -4 -47 -11 -80 -15 -32 -4 -79 -12 -104 -20 -25 -7
-74 -21 -110 -31 -36 -10 -76 -24 -90 -31 -14 -7 -30 -13 -37 -13 -6 0 -26 -8
-45 -17 -18 -9 -44 -22 -58 -28 -53 -26 -146 -78 -161 -91 -8 -8 -19 -14 -23
-14 -6 0 -82 -54 -201 -142 -57 -42 -296 -290 -335 -348 -22 -32 -46 -65 -55
-73 -8 -9 -15 -19 -15 -22 0 -4 -16 -30 -35 -59 -19 -29 -35 -55 -35 -58 0 -3
-17 -37 -38 -75 -22 -39 -41 -79 -45 -89 -3 -10 -15 -44 -27 -74 -91 -238
-121 -381 -121 -589 0 -165 1 -169 47 -316 55 -171 197 -363 330 -447 201
-127 397 -177 696 -178 92 0 189 5 215 10 26 6 77 15 113 20 270 38 555 167
791 356 134 108 244 213 233 223 -11 11 -63 40 -189 106 -55 29 -116 61 -135
73 -79 46 -190 102 -203 102 -8 0 -35 -16 -60 -35 -25 -19 -49 -35 -52 -35 -4
0 -21 -11 -38 -24 -18 -13 -52 -33 -77 -43 -203 -88 -337 -117 -490 -109 -200
10 -333 74 -415 199 -49 75 -83 259 -53 285 12 9 245 12 1018 14 l1003 3 20
60 c11 33 25 76 32 95 42 117 66 270 72 450 4 131 1 170 -16 250 -30 143 -63
223 -138 338 -47 72 -179 203 -241 239 -26 15 -48 31 -50 35 -2 4 -11 8 -21 8
-9 0 -25 6 -36 13 -39 26 -177 67 -306 91 -93 17 -397 22 -435 6z m176 -625
c137 -25 186 -49 267 -131 61 -61 105 -151 101 -204 l-3 -35 -592 -3 -593 -2
0 23 c0 38 157 184 265 245 91 52 236 101 301 103 21 1 50 5 64 9 39 13 108
11 190 -5z"/>
</g>
</svg>
